<svg width="14" height="14" viewBox="0 0 14 14" fill="none" xmlns="http://www.w3.org/2000/svg">
<path fill-rule="evenodd" clip-rule="evenodd" d="M7 12.25C9.89952 12.25 12.25 9.89952 12.25 7C12.25 4.10051 9.89952 1.75 7 1.75C4.10051 1.75 1.75 4.10051 1.75 7C1.75 9.89952 4.10051 12.25 7 12.25ZM7 14C10.866 14 14 10.866 14 7C14 3.134 10.866 0 7 0C3.134 0 0 3.134 0 7C0 10.866 3.134 14 7 14Z" fill="#AFAFAF"/>
<path fill-rule="evenodd" clip-rule="evenodd" d="M6.5625 3.71875C6.92492 3.71875 7.21875 4.01256 7.21875 4.375V7.15867C7.21875 7.2289 7.25241 7.29482 7.30934 7.33594L9.13459 8.65573C9.42824 8.86801 9.49416 9.27832 9.28182 9.57209C9.06943 9.86574 8.65917 9.93166 8.36547 9.71932L6.54027 8.39953C6.14209 8.1116 5.90625 7.65007 5.90625 7.15867V4.375C5.90625 4.01256 6.20007 3.71875 6.5625 3.71875Z" fill="#AFAFAF"/>
</svg>
