<svg width="14" height="14" viewBox="0 0 14 14" fill="none" xmlns="http://www.w3.org/2000/svg">
<path fill-rule="evenodd" clip-rule="evenodd" d="M0.292891 0.292891C0.683421 -0.0976303 1.31658 -0.0976303 1.70711 0.292891L6.71716 5.30294C6.81616 5.40195 6.86566 5.45145 6.92275 5.47C6.97296 5.48631 7.02704 5.48631 7.07725 5.47C7.13434 5.45145 7.18384 5.40195 7.28284 5.30294L12.2929 0.292891C12.6834 -0.0976303 13.3166 -0.0976303 13.7071 0.292891C14.0976 0.683421 14.0976 1.31658 13.7071 1.70711L8.69706 6.71716C8.59805 6.81616 8.54855 6.86566 8.53 6.92275C8.51369 6.97296 8.51369 7.02704 8.53 7.07725C8.54855 7.13434 8.59805 7.18384 8.69706 7.28284L13.7071 12.2929C14.0976 12.6834 14.0976 13.3166 13.7071 13.7071C13.3166 14.0976 12.6834 14.0976 12.2929 13.7071L7.28284 8.69706C7.18384 8.59805 7.13434 8.54855 7.07725 8.53C7.02704 8.51369 6.97296 8.51369 6.92275 8.53C6.86566 8.54855 6.81616 8.59805 6.71716 8.69706L1.70711 13.7071C1.31658 14.0976 0.683421 14.0976 0.292891 13.7071C-0.0976303 13.3166 -0.0976303 12.6834 0.292891 12.2929L5.30294 7.28284C5.40195 7.18384 5.45145 7.13434 5.47 7.07725C5.48631 7.02704 5.48631 6.97296 5.47 6.92275C5.45145 6.86566 5.40195 6.81616 5.30294 6.71716L0.292891 1.70711C-0.0976303 1.31658 -0.0976303 0.683421 0.292891 0.292891Z" fill="black"/>
</svg>
