<svg width="24" height="24" viewBox="0 0 24 24" fill="none" xmlns="http://www.w3.org/2000/svg">
<path fill-rule="evenodd" clip-rule="evenodd" d="M8.03474 3.17647C8.03474 1.42215 9.4241 0 11.138 0H12.862C14.5759 0 15.9652 1.42215 15.9652 3.17647C15.9652 3.97354 16.8082 4.47174 17.4826 4.07318C18.9669 3.19602 20.8648 3.71657 21.7217 5.23585L22.5837 6.76413C23.4407 8.28341 22.9321 10.2261 21.4479 11.1033C20.7735 11.5018 20.7735 12.4982 21.4478 12.8967C22.9321 13.7739 23.4406 15.7166 22.5837 17.2359L21.7217 18.7641C20.8648 20.2834 18.9668 20.804 17.4826 19.9268C16.8082 19.5283 15.9652 20.0264 15.9652 20.8235C15.9652 22.5778 14.5759 24 12.862 24H11.138C9.4241 24 8.03474 22.5778 8.03474 20.8235C8.03474 20.0264 7.19176 19.5283 6.51741 19.9268C5.03315 20.804 3.13524 20.2834 2.2783 18.7641L1.41629 17.2359C0.559359 15.7166 1.0679 13.7739 2.55216 12.8967C3.22651 12.4982 3.22653 11.5018 2.55214 11.1033C1.06788 10.2261 0.559338 8.28342 1.41627 6.76414L2.27828 5.23586C3.13522 3.71657 5.03313 3.19603 6.51738 4.07319C7.19176 4.47173 8.03474 3.97355 8.03474 3.17647ZM11.138 2.73529C10.8999 2.73529 10.707 2.93282 10.707 3.17647C10.707 6.07918 7.63714 7.89338 5.18127 6.44202C4.97512 6.32019 4.71152 6.39249 4.5925 6.6035L3.73049 8.13178C3.61147 8.3428 3.68211 8.61262 3.88825 8.73444C6.34409 10.1858 6.34416 13.8142 3.88827 15.2655C3.68213 15.3874 3.6115 15.6572 3.73052 15.8682L4.59253 17.3965C4.71154 17.6075 4.97514 17.6798 5.18129 17.558C7.63716 16.1066 10.707 17.9208 10.707 20.8235C10.707 21.0672 10.8999 21.2647 11.138 21.2647H12.862C13.1 21.2647 13.293 21.0672 13.293 20.8235C13.293 17.9208 16.3628 16.1066 18.8187 17.558C19.0249 17.6798 19.2885 17.6075 19.4075 17.3965L20.2695 15.8682C20.3885 15.6572 20.3179 15.3874 20.1117 15.2656C17.6558 13.8142 17.6559 10.1858 20.1117 8.73444C20.3179 8.61261 20.3885 8.34279 20.2695 8.13178L19.4075 6.6035C19.2885 6.39249 19.0249 6.32019 18.8187 6.44202C16.3629 7.89337 13.293 6.07921 13.293 3.17647C13.293 2.93282 13.1 2.73529 12.862 2.73529H11.138Z" fill="white"/>
<path fill-rule="evenodd" clip-rule="evenodd" d="M12 14C13.1046 14 14 13.1046 14 12C14 10.8954 13.1046 10 12 10C10.8954 10 10 10.8954 10 12C10 13.1046 10.8954 14 12 14ZM12 16C14.2091 16 16 14.2091 16 12C16 9.79086 14.2091 8 12 8C9.79086 8 8 9.79086 8 12C8 14.2091 9.79086 16 12 16Z" fill="white"/>
</svg>
