<svg width="26" height="20" viewBox="0 0 26 20" fill="none" xmlns="http://www.w3.org/2000/svg">
<path d="M20.0925 7.5H18.6038C18.1618 5.68875 17.2484 4.04498 15.9675 2.75549C14.6866 1.466 13.0894 0.582489 11.3576 0.205345C9.62578 -0.171799 7.82868 -0.0274497 6.17052 0.62199C4.51235 1.27143 3.05962 2.39992 1.97738 3.87923C0.895143 5.35854 0.2268 7.12935 0.0482961 8.99044C-0.130208 10.8515 0.188284 12.7283 0.967582 14.4075C1.74688 16.0866 2.95574 17.5008 4.45679 18.4895C5.95784 19.4781 7.6909 20.0014 9.45903 20H20.0925C21.6593 20 23.1619 19.3415 24.2697 18.1694C25.3776 16.9973 26 15.4076 26 13.75C26 12.0924 25.3776 10.5027 24.2697 9.33058C23.1619 8.15848 21.6593 7.5 20.0925 7.5Z" fill="white"/>
</svg>
